<svg width="18" height="21" viewBox="0 0 18 21" fill="none" xmlns="http://www.w3.org/2000/svg">
<path fill-rule="evenodd" clip-rule="evenodd" d="M0.444753 0.0491303C0.27104 0.129562 0.115289 0.29502 0.049256 0.469296C0.0153482 0.558685 -0.000503698 1.76225 1.21883e-05 4.19774C0.000950163 8.23291 -0.0041617 8.16195 0.333978 8.8478C0.665411 9.52019 1.36139 10.1201 2.07448 10.3481L2.25035 10.4043V14.7055C2.25035 18.3668 2.26076 19.0467 2.32033 19.2753C2.63595 20.4872 3.86198 21.2309 5.03886 20.9244C5.84777 20.7136 6.47082 20.0886 6.68266 19.2753C6.74222 19.0467 6.75263 18.3668 6.75263 14.7055V10.4043L6.9285 10.3481C7.64155 10.1201 8.33753 9.52023 8.66905 8.8478C9.01212 8.1521 9.007 8.22639 8.99289 4.11501C8.98046 0.507893 8.9791 0.459729 8.88361 0.331883C8.69986 0.0857582 8.54998 0.00898505 8.25339 0.00898505C7.9568 0.00898505 7.80691 0.0857582 7.62316 0.331836C7.52843 0.458744 7.52618 0.517086 7.51366 3.22497L7.50085 5.98857H6.37744H5.25403L5.24122 3.22497C5.2287 0.517086 5.22645 0.458744 5.13172 0.331836C4.94797 0.0857582 4.79808 0.00898505 4.50149 0.00898505C4.2049 0.00898505 4.05502 0.0857582 3.87127 0.331836C3.77653 0.458744 3.77428 0.517086 3.76176 3.22497L3.74895 5.98857H2.62554H1.50213L1.48933 3.22497C1.47681 0.517086 1.47455 0.458744 1.37982 0.331836C1.32664 0.260644 1.22796 0.161171 1.16057 0.110849C1.00515 -0.00517832 0.631644 -0.0373978 0.444753 0.0491303ZM16.5545 0.0160199C14.9666 0.206522 13.6096 0.861932 12.4958 1.97648C11.5373 2.93542 10.9317 4.04424 10.6364 5.3809C10.5284 5.86954 10.528 5.88422 10.528 9.44388C10.528 12.979 10.529 13.0178 10.6247 13.146C10.6779 13.2172 10.7796 13.319 10.8508 13.3722C10.9728 13.4634 11.0524 13.4697 12.2431 13.4828L13.506 13.4967V16.2517C13.506 18.5425 13.5178 19.052 13.576 19.2753C13.8908 20.4837 15.1179 21.2308 16.2875 20.9262C17.1209 20.7091 17.7901 20.019 17.9586 19.2029C17.9945 19.0289 18.0059 16.2274 17.9972 9.70872L17.9849 0.461417L17.8882 0.331883C17.6865 0.0617929 17.5654 0.00950101 17.1256 0.0026538C16.9017 -0.000816704 16.6447 0.00518632 16.5545 0.0160199ZM16.0855 1.62188C14.1111 2.07394 12.6185 3.58905 12.1129 5.65432C12.0479 5.92015 12.0342 6.401 12.0186 8.97621L12.0002 11.9873L13.2657 12.0012C14.4589 12.0143 14.5385 12.0206 14.6606 12.1118C14.7317 12.1649 14.8335 12.2667 14.8866 12.3379C14.9816 12.465 14.9838 12.5266 15.0068 15.7201C15.0299 18.9285 15.0316 18.9745 15.1284 19.1051C15.4696 19.5655 16.0448 19.5655 16.386 19.1051L16.4841 18.9727L16.4962 10.2529C16.5029 5.45707 16.4923 1.53502 16.4728 1.53727C16.4532 1.53952 16.2789 1.57761 16.0855 1.62188ZM1.51611 7.70009C1.57844 8.15478 1.93707 8.6421 2.35334 8.83776C2.47232 8.89371 2.73332 8.95975 2.93329 8.9846C3.31373 9.03183 3.45776 9.10443 3.63096 9.33644C3.72677 9.4647 3.7279 9.50991 3.75111 14.2193C3.77447 18.9507 3.77503 18.9733 3.87267 19.1051C4.03902 19.3295 4.25682 19.4485 4.50149 19.4485C4.74616 19.4485 4.96396 19.3295 5.13031 19.1051C5.22795 18.9733 5.22852 18.9507 5.25187 14.2193C5.27509 9.50991 5.27621 9.4647 5.37203 9.33644C5.54729 9.10171 5.69014 9.03009 6.06744 8.98779C6.82453 8.90286 7.37648 8.40409 7.4804 7.71102L7.51366 7.48933H4.50046H1.48722L1.51611 7.70009Z" fill="currentColor"/>
</svg>
